<svg xmlns="http://www.w3.org/2000/svg" viewBox="0 0 48 48">
  <path fill="#FBBC05" d="M9.82727 24c0-1.52427.25316-2.9856.705-4.35627l-7.90882-6.03946C1.08207 16.73387.21364 20.26027.21364 24c0 3.73653.86736 7.2608 2.40661 10.38827l7.90455-6.0512C10.07723 26.9728 9.82727 25.5168 9.82727 24"/>
  <path fill="#EB4335" d="M23.71364 10.13333c3.31136 0 6.30227 1.17334 8.65227 3.09334L39.20227 6.4C35.03637 2.77333 29.69545.53333 23.71364.53333c-9.28678 0-17.26823 5.31094-21.09019 13.07094l7.90882 6.03946c1.82232-5.53173 7.01689-9.5104 13.18137-9.5104"/>
  <path fill="#34A853" d="M23.71364 37.86667c-6.16448 0-11.35905-3.97867-13.18137-9.5104l-7.90882 6.0384c3.82196 7.76106 11.80341 13.072 21.09019 13.072 5.73186 0 11.20416-2.0352 15.31131-5.84854l-7.50718-5.80373c-2.1182 1.3344-4.78545 2.05227-7.80413 2.05227"/>
  <path fill="#4285F4" d="M46.14545 24c0-1.38667-.21363-2.88-.53409-4.26667H23.71364V28.8h12.60454c-.63023 3.0912-2.34573 5.46773-4.8004 7.0144l7.50717 5.80373c4.3144-4.00426 7.1205-9.96906 7.1205-17.61813"/>
</svg>
