<svg xmlns="http://www.w3.org/2000/svg" xml:space="preserve" viewBox="0 0 979.8 979.8">
  <linearGradient id="a" x1="489.8998" x2="489.8998" y1="17.8705" y2="961.9294" gradientUnits="userSpaceOnUse">
    <stop offset="0" stop-color="#f2910a"/>
    <stop offset=".307" stop-color="#bb3710"/>
    <stop offset="1" stop-color="#24110c"/>
  </linearGradient>
  <path fill="url(#a)" d="m778.2 732.8 141.9-141.9c55.8-55.8 55.8-146.2 0-202L778.2 247 645.3 379.9l110 110-110 109.9 132.9 133z"/>
  <linearGradient id="b" x1="489.8998" x2="489.8998" y1="17.8705" y2="961.9294" gradientUnits="userSpaceOnUse">
    <stop offset="0" stop-color="#f2910a"/>
    <stop offset=".307" stop-color="#bb3710"/>
    <stop offset="1" stop-color="#24110c"/>
  </linearGradient>
  <path fill="url(#b)" d="m380.1 334.3 109.8-109.8 110 110 132.9-132.9L590.9 59.7c-55.8-55.8-146.2-55.8-202 0L247.2 201.4l132.9 132.9z"/>
  <linearGradient id="c" x1="489.8998" x2="489.8998" y1="17.8705" y2="961.9294" gradientUnits="userSpaceOnUse">
    <stop offset="0" stop-color="#f2910a"/>
    <stop offset=".307" stop-color="#bb3710"/>
    <stop offset="1" stop-color="#24110c"/>
  </linearGradient>
  <path fill="url(#c)" d="m599.9 645.2-110 110-110-110-132.9 133 141.9 141.9c55.8 55.8 146.2 55.8 202 0l141.9-141.9-132.9-133z"/>
  <linearGradient id="d" x1="489.8998" x2="489.8998" y1="17.8705" y2="961.9294" gradientUnits="userSpaceOnUse">
    <stop offset="0" stop-color="#f2910a"/>
    <stop offset=".307" stop-color="#bb3710"/>
    <stop offset="1" stop-color="#24110c"/>
  </linearGradient>
  <path fill="url(#d)" d="m334.5 599.9-110-110 110.1-110.1-132.8-133L59.7 388.9c-55.8 55.8-55.8 146.2 0 202l141.9 141.9 132.9-132.9z"/>
</svg>
